<?xml version="1.0" encoding="UTF-8"?><svg id="uuid-9bfdf050-305e-4db9-889d-61eca72b6e33" xmlns="http://www.w3.org/2000/svg" width="752.85" height="576.58" viewBox="0 0 752.85 576.58"><path d="M95.97,185.67c3.16-2.86,3.61-5.28,2.84-9.32-.6-3.13-1.66-6.09-2.66-9.09-1.55-4.66-3.03-9.33-4.22-14.11-3.45-13.83-4.78-28.31-4.48-42.51.29-13.69,2.18-28.67,6.27-41.83,1.46-4.7,3.18-9.2,5.66-13.49,1.79-3.1,3.75-5.81,6.67-8.01,2.64-1.98,5.37-2.93,8.6-3.35,4.28-.55,8.41-.14,12.62.38,6.39.78,12.71,1.92,19.03,3.11,8.65,1.62,17.25,3.4,25.79,5.52,20,4.95,37.7,11.3,56.34,20.07,5.75,2.71,11.43,5.58,17.06,8.53,4.49,2.35,8.94,4.78,13.47,7.06,3.18,1.6,6.35,3.14,9.74,4.26,2.17.72,4.3,1.22,6.62,1.24,3.16.02,6.09-.89,9.12-1.42,3.05-.53,6.12-.86,9.18-1.29,3.25-.46,6.49-.99,9.75-1.38,4.31-.52,8.62-.73,12.94-.85,7.57-.2,15.12-.14,22.69.05,4.27.11,8.53.28,12.8.44,3.94.16,7.89.32,11.83.33,7.09.03,12.37-.49,19.32-1.82,6.93-1.32,11.77-2.24,18.85-2.6,7.02-.36,13.98-.03,20.97.45,6.02.42,12,.97,18.06.67,5.05-.25,9.87-1.15,14.7-2.62,4.14-1.27,8.14-2.93,12.29-4.19,4.55-1.38,9.13-2.2,13.86-2.63,2.26-.21,4.52-.31,6.79-.37,1.91-.04,3.81-.03,5.72-.12,3.4-.15,5.83-.67,8.83-2.38,1.7-.97,3.27-2.12,4.83-3.3,2.09-1.57,4.14-3.19,6.21-4.78,13.08-9.96,26.07-17.65,41.31-23.89,14.76-6.05,26.96-8.76,42.75-10.41,6.16-.65,12.32-1.14,18.51-1.47,4.65-.24,9.25-.42,13.91.22,3.67.51,7.01,1.44,10.27,3.3,2.88,1.65,4.89,3.73,6.5,6.62,1.01,1.83,1.79,3.73,2.52,5.68.97,2.62,1.82,5.27,2.63,7.94,2.06,6.8,3.87,13.66,5.45,20.59,3.58,15.72,4.72,27.65,4.32,43.76-.13,5.16-.33,10.3-.89,15.44-.34,3.13-.9,6.18-1.79,9.2-.31,1.03-.64,2.06-.91,3.1-.18.72-.34,1.42-.34,2.17,0,.99.28,1.67,1.05,2.31.35.29.73.55,1.08.84.55.46,1.03.97,1.48,1.53,1.68,2.09,2.67,4.35,3.39,6.9,1.64,5.83,1.39,13.37.11,19.17-.39,1.79-.97,3.51-1.47,5.27-.37,1.32-.65,2.49-.09,3.88.4.99,1,1.8,1.64,2.62,1.16,1.5,2.42,2.91,3.67,4.33,4.89,5.57,9.72,11.17,14.3,17,6.99,8.9,13.45,18.07,19.12,27.89,5.73,9.92,10.3,20.13,13.7,31.09,6.49,20.92,8.32,43.07,8.31,64.69,0,20.97-1.53,38.97-6.41,59.46-5.07,21.3-11.96,39.01-24.9,57-5.83,8.11-12.31,15.59-19.1,22.88-7.7,8.25-15.65,16.17-24.27,23.48-9.05,7.68-18.62,14.17-29.2,19.58-11.2,5.73-24.22,10.8-36.08,14.89-12.68,4.37-25.43,8.08-38.68,10.43-10.52,1.87-21.05,2.72-31.7,3.15-15.84.63-27.74.36-43.19-4.31-13.1-3.96-32.17-12.37-44.07-19.06-6.17-3.47-11.99-7.3-17.44-11.84-4.44-3.69-8.5-7.74-12.47-11.92-3.06-3.22-6.05-6.51-9.17-9.67-1.09-1.1-2.19-2.19-3.35-3.22-.79-.7-1.6-1.37-2.5-1.94-.94-.59-2.04-1.12-3.23-.67-1.26.47-2.29,1.75-3.09,2.68-2.03,2.34-3.94,4.78-5.96,7.12-3.71,4.28-7.64,8.3-11.8,12.14-11.13,10.27-25.1,20.57-38.78,27.3-12.64,6.22-24.33,9.22-38.08,11.52-8.98,1.5-17.92,2.79-27.05,3.08-12.29.38-25.02-1.02-37.09-2.89-26.79-4.15-48.43-10.52-73.27-21.36-10.23-4.46-20.14-9.25-29.42-15.57-10.02-6.83-18.73-14.9-27.25-23.42-7.2-7.2-14.16-14.51-20.24-22.73-6.34-8.55-11.46-17.65-16.05-27.21-5.56-11.6-10.52-24.61-13.95-37.02-3.06-11.05-4.43-21.22-5.69-32.55-1.49-13.41-2.81-28.95-2.46-42.5.3-11.66,1.82-21.74,4.88-32.99,2.58-9.5,5.74-18.75,9.3-27.92,4.87-12.54,10.8-25.75,17.81-37.3,6.1-10.03,13.11-19,21.52-27.21,2.62-2.56,5.35-4.98,8.2-7.29,1.87-1.51,3.82-2.92,5.61-4.54Z"/><path d="M66.15,177.91c.89-1.01,1.79-2.02,2.6-3.1.5-.66.97-1.33,1.3-2.11.59-1.4.39-2.64.1-4.02-.61-2.96-1.39-5.88-2.03-8.83-1.42-6.49-2.58-13.01-3.46-19.59-2.68-20.09-2.49-39.43,1.16-59.42,1.59-8.72,3.75-17.23,6.6-25.63,1.73-5.1,3.58-10.04,6.49-14.66,4.68-7.41,11.96-13.4,20.14-16.56,8.07-3.11,18.04-4.14,26.5-4.28,3.97-.07,7.9.12,11.85.57,7,.8,13.88,2.11,20.78,3.51,21.08,4.26,39.03,9.06,59,17.25,10.04,4.12,19.87,8.65,29.6,13.43,6.83,3.36,13.58,6.84,20.15,10.69,1.68.98,3.34,2,5.03,2.98,1.14.66,2.29,1.28,3.52,1.78,2.04.82,3.94,1.07,6.13.68,1.25-.22,2.45-.58,3.66-.91,1.85-.51,3.7-.96,5.58-1.31,6.93-1.32,13.89-1.77,20.9-2.1,9.72-.46,19.43-.52,29.16-.59,8.22-.06,16.43-.13,24.64-.81,3.2-.26,6.38-.62,9.57-.96,3.58-.38,7.17-.72,10.76-.96,9.41-.65,18.82-.83,28.24-.94,4.36-.05,8.73-.08,13.09-.13,3.24-.04,6.47-.07,9.71-.24,2.13-.11,4.24-.26,6.34-.67,1.48-.28,2.89-.72,4.29-1.27,1.51-.6,3-1.25,4.53-1.79,2.29-.81,4.61-1.45,6.97-2.01,6.22-1.49,12.5-2.47,18.85-3.24,2.45-.3,4.91-.55,7.37-.8,1.63-.17,3.25-.31,4.85-.65,2.97-.63,4.71-2,7.05-3.7,3.97-2.88,8.05-5.56,12.25-8.09,6.15-3.71,12.43-7.16,18.83-10.41,11.4-5.8,20.53-9.42,32.79-13.03,12.16-3.58,24.46-6.37,36.88-8.8,5.22-1.02,10.45-1.99,15.72-2.72,4.19-.58,8.36-1,12.6-.97,9.05.06,16.57,2.04,24.15,7.19,4.45,3.02,8.19,6.57,11.59,10.71,4.37,5.32,7.66,11.06,10.41,17.33,6.69,15.23,10.69,34.99,12.22,51.35.67,7.12.92,14.25,1.04,21.4.09,5.28.14,10.56.14,15.85,0,3.5-.08,7-.26,10.5-.09,1.71-.27,3.37.18,5.09.19.73.47,1.41.75,2.1.4.99.79,1.98,1.13,2.99,1.12,3.29,1.89,6.65,2.56,10.05,1.22,6.17,2.14,12.23,1.77,18.59-.09,1.45-.34,3.37.05,4.85.22.82.62,1.51,1.1,2.2.8,1.14,1.72,2.17,2.62,3.21,3.89,4.5,7.73,9.05,11.4,13.74,5.16,6.59,10.06,13.31,14.39,20.49,4.15,6.89,7.52,14.06,10.48,21.52,3.64,9.16,6.73,18.45,9.29,27.97,3,11.18,5.05,22.43,6.31,33.92,1.18,10.75,1.74,21.5,1.8,32.31.05,9.81-.44,19.53-1.53,29.28-1.32,11.79-3.31,23.4-6.03,34.94-6.29,26.7-15.18,46.39-31.16,68.71-6.9,9.64-14.33,18.77-22.36,27.5-6.11,6.63-12.59,12.82-19.43,18.69-7.36,6.33-14.9,12.4-22.79,18.07-10.25,7.37-20.94,13.64-32.45,18.85-12.89,5.84-26.09,10.24-39.81,13.65-13.87,3.45-27.73,5.66-42.03,6.31-21.47.97-44.73-1.67-65.57-6.66-14.4-3.45-26.99-8.04-39.96-15.31-11.08-6.22-19.91-12.9-28.87-21.92-3.25-3.27-6.34-6.69-9.44-10.1-1.75-1.92-3.43-3.89-5.4-5.61-1.86-1.62-3.01-2.29-5.09-.44-1.39,1.24-2.7,2.57-4.09,3.81-3.51,3.15-7.14,6.13-10.85,9.04-12.87,10.11-26.07,18.97-41.24,25.49-14.43,6.2-31.3,10.44-46.69,13-19.87,3.31-42.98,4.48-63.1,2.54-11.19-1.08-22.05-3.28-32.9-6.12-14.33-3.75-28.26-8.37-41.95-14.06-25.1-10.44-48.45-24.57-67.77-44.15-15.55-15.76-28.38-35.51-38.54-54.92-11.14-21.29-18.32-41.66-22.5-65.37-2.56-14.51-4.22-31.18-4.29-45.93-.06-14.21,1.3-25.66,4.31-39.53,2.82-12.98,7.17-28.67,11.31-41.29,4.11-12.52,8.8-24.6,15.28-36.16,5.26-9.39,11.48-17.94,18.38-26.16,4.33-5.16,8.91-10.09,13.37-15.13Z" style="fill:none; stroke:#fff; stroke-miterlimit:10; stroke-width:7px;"/><path d="M159.36,171.65c.81-.41,1.59-.86,2.31-1.41.45-.34.88-.66,1.14-1.21.56-1.15-1.47-1.24-2.23-1.29-1.54-.1-3.07-.07-4.6-.03-2.28.06-4.55.15-6.83.25-4.97.22-9.94.45-14.89,1.1-1.93.25-3.84.58-5.75.93-1.38.25-2.75.53-4.15.65-2.09.19-3.62.06-4.88-1.93-1.01-1.58-1.61-3.54-2.16-5.29-1.12-3.53-2.04-7.1-2.9-10.7-2.24-9.39-3.82-18.78-4.45-28.43-.58-9-.43-17.93.26-26.91.56-7.36,1.41-14.61,3.1-21.83.89-3.8,2.01-7.75,4.05-11.18.82-1.38,1.83-2.86,3.63-3.22,1.14-.23,2.22-.1,3.34.03,2.32.27,4.61.7,6.91,1.12,9.81,1.79,19.61,3.61,29.38,5.54,12,2.37,23.83,4.92,35.36,9.25,10.27,3.85,19.75,9.04,29.27,14.34,7.79,4.34,15.6,8.64,23.5,12.78,5.04,2.65,10.06,5.33,15.15,7.87,1.3.65,2.6,1.29,3.98,1.79.87.31,1.71.55,2.65.53.87-.02,1.65-.26,2.45-.56,1.27-.48,2.52-1.02,3.79-1.49,5.84-2.17,11.8-3.54,17.9-4.65,9.42-1.7,18.81-2.48,28.37-2.55,8.28-.06,16.49.49,24.71,1.39,4.93.54,10.27,1.33,15.3.97,4.67-.33,9.03-1.75,13.49-2.87,6.49-1.62,13.01-2.48,19.67-2.88,3.12-.19,6.25-.3,9.38-.33,2.05-.02,4.09-.03,6.13.1,1.11.07,2.21.16,3.29.47.64.18,1.2.38,1.69.88.4.4.53.76.39,1.32-.23.92-.99,1.76-1.55,2.43-1.52,1.84-3.14,3.58-4.72,5.37-2.73,3.08-5.4,6.2-7.94,9.43-5.39,6.86-10.82,14.93-12.95,23.74-1.61,6.66-1.3,13.54.83,20.04,2.18,6.63,5.95,12.07,11.75,16.1,6.73,4.67,16.16,7.56,23.89,9.38,7.17,1.69,14.66,2.85,22.1,2.63,2.23-.07,4.43-.27,6.64-.62,1.43-.23,2.84-.52,4.26-.78,4.03-.74,5.25-.63,7.48,3.06,2.16,3.58,3.54,7.5,5.44,11.19,2.87,5.6,6.46,9.92,11.71,13.5,10.55,7.19,23.16,7.79,34.95,7.58,2.12-.04,4.23-.13,6.35-.18,1.29-.03,2.57-.09,3.87.14,2.12.37,2.79,1.75,3.63,3.4.91,1.8,1.81,3.6,2.76,5.38,1.8,3.33,3.72,6.57,5.8,9.73,4.75,7.2,10.7,14.61,19.03,18.41,7.91,3.61,17.3,3.8,25.56,2.45,9.79-1.59,18.87-5.51,27.16-10.78,9.57-6.09,17.44-13.48,24.67-22.14,3.13-3.75,6.06-7.65,8.96-11.58,1.75-2.37,3.42-4.8,5.39-7.01,2.08-2.34,3.26-2.91,5.91-.85,2.2,1.71,4.17,3.98,5.96,6.06,3.17,3.67,6.11,7.5,8.91,11.45,7.75,10.95,13.7,22.39,18,35.12,5.39,15.92,8.28,33.56,9.68,50.2,1.33,15.79,1.49,31.3-.7,47.08-2,14.49-6.02,30.34-11.31,43.99-4.07,10.5-9.13,20.27-15.31,29.67-7.15,10.87-15.23,20.77-24.28,30.1-8.67,8.94-17.96,16.87-28.26,23.89-8.68,5.91-17.72,11.02-27.18,15.55-18.77,8.98-38.93,15.25-59.72,17.51-22.33,2.43-45.3.37-66.81-6.17-15.75-4.79-29.48-11.6-42.29-22.13-5.69-4.68-10.83-9.74-15.46-15.48-3.99-4.95-7.38-10.25-10.64-15.68-2.78-4.62-5.55-9.24-8.31-13.87-1.97-3.29-3.87-6.6-5.47-10.1-.49-1.07-.93-2.16-1.42-3.23-.32-.72-.65-1.42-1.11-2.07-.61-.85-1.22-1.36-2.32-1.44-.81-.06-1.37.13-1.93.73-.34.37-.56.78-.76,1.22-.35.75-.63,1.52-.92,2.29-1.35,3.58-2.82,7.1-4.43,10.57-3.04,6.54-6.44,12.82-10.41,18.84-9.44,14.29-21,24.87-35.32,33.99-15.17,9.67-34.47,17.99-52.05,22-10.18,2.32-20.27,3.27-30.69,3.08-9.95-.18-19.71-1.23-29.49-3.05-10.44-1.94-20.52-4.81-30.51-8.38-10.71-3.82-21.12-8.21-31.31-13.29-10.93-5.45-21.13-11.73-30.76-19.28-10.35-8.11-19.66-17.06-28.29-26.97-16-18.36-25.73-36.33-32.69-59.63-9.7-32.46-9.59-60.94-4.63-93.87,4.89-32.43,11.55-51.76,32.02-78.03,7.93-10.18,15.67-18.38,25.86-26.37,8.2-6.43,16.88-12,25.8-17.33,4.15-2.48,8.28-4.89,12.8-6.69,2.34-.93,4.74-1.68,7-2.83Z" style="fill:#fff;"/><path d="M595.69,153.91c.34-1.33.76-2.9,2.15-3.7.67-.38,1.36-.54,2.1-.66,1.12-.18,2.23-.22,3.36-.23,4.51-.04,8.94.47,13.39,1.05,5.33.7,11.41,1.69,16.56,3.37,3.15,1.03,6.03,2.32,8.68,4.39,2.07,1.62,3.64,3.36,4.67,5.84,1.22,2.95,1.2,5.74.86,8.8-.53,4.74-1.85,9.16-3.54,13.59-4.65,12.2-13.12,24.19-21.28,34.07-4.75,5.75-9.76,11.13-15.42,16.02-4.62,3.99-9.41,7.47-14.96,10.12-3.74,1.78-7.54,3.05-11.63,3.77-3.23.57-6.33.78-9.6.16-6.47-1.22-10.93-5.61-14.25-10.79-2.33-3.65-4.57-8.54-5.09-12.96-.4-3.4.14-6.29,3.18-8.43,1.26-.89,2.66-1.54,3.95-2.37,1.3-.84,2.44-1.81,3.49-2.95,1.58-1.71,3.22-4.08,5.42-5.26,1.26-.67,2.82-.97,4.17-.17,1.37.82,1.82,2.21,2.73,3.32.68.83,1.46,1.01,2.19.13.84-1,.72-2.44.67-3.55-.21-4.34-1.06-9.19,1.42-13.48,1.05-1.81,2.45-3.31,3.76-4.89,1.15-1.39,2.16-2.83,2.99-4.44.8-1.55,1.41-3.15,2.64-4.48,1.26-1.37,2.76-2.07,4.43-2.7,1.43-.55,2.92-.92,4.35-1.49.65-.26,1.86-.75,1.58-1.73-.29-1.05-1.72-1.92-2.44-2.45-1.22-.88-2.3-1.63-2.67-3.28-.22-.94-.16-1.85-.07-2.79.13-1.3.36-2.58.6-3.86.46-2.46,1.01-5.54,1.63-7.97Z" style="fill:#d73123;"/><path d="M519.65,126.85c-9.64,4.14-21.14,12.72-27.08,21.63-5.7,8.55-9.96,22.96-9.52,33.29.24,5.51,1.68,9.98,5.02,14.43,3.9,5.19,9.6,9.1,15.47,11.57,10.84,4.56,23.26,4.77,34.22.39,10.99-4.4,19.8-13.08,26.12-22.64,3.58-5.42,6.4-10.99,8.29-17.24,1.58-5.19,2.34-10.2,1.82-15.66-1.16-12.21-9.05-21.95-20.17-26.56-10.77-4.46-23.69-3.72-34.18.8Z" style="fill:#d73123;"/><path d="M455.04,148.97c-.83.35-2.04.88-2.62,1.68-.46.63-.06.99.59,1.18,1.15.34,2.68.31,3.84.39,1.79.13,3.54.33,5.27.9,3.95,1.29,4.56,3.43,3.25,7.18-.86,2.47-2.06,4.65-3.62,6.74-1.89,2.53-4.04,4.39-6.89,5.78-5.25,2.56-11.94,2.96-17.52,2.53-7.14-.55-14.8-2.83-20.84-6.84-5.34-3.55-8.97-8.08-8.95-14.94.03-7.06,3.51-14.64,7.2-20.26,3.77-5.73,8.35-10.51,13.41-15.05,4.94-4.43,10.12-8.47,15.66-12.14,6.24-4.14,12.72-7.5,19.76-10.1,5.61-2.08,11.26-3.62,17.2-4.46,3.62-.51,7.97-.93,11.64.08,3.53.97,6.36,3.24,8.57,6.02,2.39,3.01,3.92,6.27,5.12,9.87.4,1.19.78,2.36.84,3.64.05.99-.17,1.77-.75,2.57-1.13,1.58-3.18,2.95-4.71,3.99-2.36,1.6-4.77,3.09-7.34,4.37-1.67.83-4.12,2.03-6.21,1.61-1.66-.33-2.47-1.72-3.03-3.08-.59-1.44-.88-2.96-1.45-4.4-.23-.58-.68-1.62-1.45-1.11-.7.47-1.12,1.59-1.35,2.3-.5,1.52-.72,3.08-.98,4.64-1.12,6.59-2.09,14.24-7.64,19.43-2.62,2.45-5.51,3.9-8.87,4.96-2.7.86-5.5,1.37-8.14,2.49Z" style="fill:#d73123;"/><path d="M517.26,87.49c-.22-1.27.15-2.13.93-3.08.57-.71,1.25-1.29,1.95-1.86,1.1-.89,2.26-1.69,3.43-2.48,3.98-2.68,8.09-5.13,12.25-7.52,5.77-3.31,11.64-6.41,17.67-9.22,13.63-6.34,27.58-10.84,42.23-14.05,5.87-1.29,11.76-2.4,17.71-3.24,1.77-.25,3.54-.48,5.32-.61,1.13-.08,2.25-.14,3.39.02,1.91.28,2.79,1.25,3.61,2.86.71,1.4,1.21,2.86,1.72,4.33.9,2.61,1.7,5.25,2.49,7.9,4.44,15.01,7.21,28.05,8.48,43.69.55,6.83.85,13.64.78,20.49-.02,2.18-.08,4.35-.26,6.53-.13,1.53-.3,3.04-.72,4.54-.47,1.69-1.3,3.46-3.27,3.97-.95.24-1.83.15-2.76,0-1.57-.25-3.09-.66-4.62-1.05-5.46-1.37-10.87-2.63-16.53-2.98-4.5-.28-8.9.11-13.35.66-1.11.14-2.2.3-3.32.31-.81.01-1.54-.07-2.28-.44-1.02-.51-1.68-1.3-2.37-2.14-1.15-1.42-2.17-2.93-3.25-4.4-4.69-6.35-9.34-10.17-16.5-13.5-6.89-3.2-14.56-5.25-22.15-5.77-5.17-.36-10.32-.05-15.49-.04-2.36,0-3.94.08-5.3-2.32-.79-1.38-1.27-2.87-1.81-4.34-.77-2.09-1.58-4.14-2.58-6.13-1.01-2.01-2.19-3.9-3.36-5.81-.75-1.22-1.78-2.82-2.04-4.31Z" style="fill:#fff;"/><path d="M353.18,255.77c6.45,11.31,10.52,21.81,14.32,34.19,2.12,6.92,4.04,13.88,5.76,20.91,1.23,5.01,2.35,10.04,3.22,15.13.31,1.81.57,3.62.87,5.42.17,1.07.34,2.13.65,3.17.16.54.31,1.05.7,1.49.22.25.41.42.74.18.47-.34.61-1.1.74-1.57.39-1.49.57-3.01.77-4.53.85-6.45,1.47-12.93,2.38-19.38,1.75-12.35,4.28-24.34,8.39-36.16,2.42-6.97,5.25-13.7,8.65-20.26.92-1.76,1.88-3.5,2.88-5.22.53-.91,1.09-1.81,1.54-2.77.26-.54.79-1.78-.08-2.09-.44-.16-.78-.03-1.17.12-.76.29-1.39.75-2.03,1.24-2.15,1.67-3.97,3.61-5.76,5.64-2.5,2.83-4.77,5.81-6.85,8.96-1.94,2.94-3.67,5.96-5.14,9.16-1.02,2.22-1.84,4.5-2.61,6.81-.36,1.09-.7,2.18-1.21,3.22-.32.66-.63,1.23-1.34,1.61-1.31.7-2.49-.4-3.12-1.41-.6-.97-1.02-2.02-1.49-3.05-.79-1.71-1.63-3.39-2.55-5.03-3.05-5.49-6.6-10.6-10.34-15.62-1.68-2.26-3.41-4.48-5.23-6.63-1.27-1.49-2.57-2.95-4.01-4.28-1.35-1.24-2.93-2.53-4.77-3.08-1.4-.42-1.64.11-1.12,1.39.62,1.52,1.5,2.87,2.33,4.26,1.63,2.72,3.29,5.43,4.86,8.18Z"/><path d="M541.57,349.21c-4.61,4.01-7.07,8.98-8.2,14.86-1.08,5.59-.92,11.66.46,17.18.83,3.33,2.07,6.42,3.69,9.44,1.14,2.12,2.31,4.13,4.06,5.85,1.96,1.94,4.32,2.66,6.99,2.72,3.33.07,6.32-1.02,8.79-3.27,4.15-3.77,6.41-10.22,7.54-15.31,1.29-5.84,1.48-11.29.08-17.16-1.19-5.01-3.89-11.5-7.9-15.16-2.09-1.9-4.72-3.04-7.6-2.96-1.29.04-2.43.36-3.59.9-1.61.75-2.99,1.75-4.32,2.91Z"/><path d="M195.47,352.25c-4.24,4.93-5.58,10.62-5.96,16.8-.33,5.49.03,12.68,1.6,18.03,1.76,6,5.37,10.95,11.75,12.81,6.21,1.82,12.23-.34,16.36-5.13,4.04-4.67,5.56-11.02,6.1-16.82.59-6.27.12-11.93-2.34-17.84-1.4-3.35-3.19-6.32-5.55-9.08-1.59-1.86-3.47-3.64-5.86-4.54-2.55-.97-5.33-.79-7.84.03-3.25,1.06-6.07,3.19-8.26,5.73Z"/></svg>