<?xml version="1.0" encoding="UTF-8"?><svg id="uuid-8930a20b-f059-490c-abe9-370263c70fb2" xmlns="http://www.w3.org/2000/svg" width="832.9" height="402.97" viewBox="0 0 832.9 402.97"><path d="M179.48,82.33c-.37,2.8,2.24,2.81,4.12,3.34,17.03,4.78,48.59,7.59,67.11,9.6,117.41,12.7,212.15-3.96,325.07-31.55,63.17-15.44,165.6-55.72,226.99-28.38,53.24,23.7,20.38,68.99,17.22,109.22-3.7,47.24,38.63,94.25-18.87,127.57-41.06,23.79-90,26.02-135.96,26.34-13.68.1-16.89-.56-27.91,8.03-20.51,15.99-22.49,30.49-14.74,54.54,2.43,7.56,16.11,34.73,15.25,39.55-1.09,6.12-13.5-1.21-16.99-2.94-23.78-11.85-45.66-29.28-72.07-35.52s-55.62-2.67-80.01,8.92c-4.62,2.2-26.11,16.98-27.73,16.85-4.17-.33-1.54-11.89-1.03-14.73,4.21-23.34,12.79-46.49,27.49-65.16,11.91-15.13,26.51-25.85,39.8-39.38-1.23-1.61-17.08.66-20.28,1.12-72.64,10.39-130.86,24.29-206.39,21.82-68.91-2.25-206.46-15.25-262.76-55.02-27.92-19.72-15.85-40.81-10.94-68.34,6.73-37.74-1.77-64.7-4.68-101.32C-.2,37.26-.9,18.38,30.07,6.13c56.83-22.47,110.71,24.37,167.88,20.45,16.72-1.15,34.55-8.34,49.74-14.98,3.91.78-1.84,15.11-2.98,17.91-9.38,23.07-21.3,29.2-41.65,41.03-7.47,4.35-15.3,9.36-23.58,11.79ZM217.33,46.46c1.91.18,3.36-2.41,4.98-3.98.34-.33.66-.67,1-1,.72-.69,1.3-1.26,1.99-1.99.32-.34.68-.65,1-1,1.39-1.52,5.72-4.31,4.47-6.99-16.2,6-31.17,7.35-48.3,6.99-.33,0-.66.01-1,0-2.31-.07-4.68.16-6.97,0-.07,0-.25-.93-1-1-1.94-.18-4.01.09-5.98,0-.49-1.37-1.95-.85-2.99-1-4.57-.66-10.47-1.85-14.94-2.99C115.26,24.79,47.99-6.86,19.58,28.52c-6.05,7.54-5.13,9.81,2.18,15.78,17.25,14.08,88.69,29.93,112.69,33.75,14.53,2.32,26.78-2.79,40.3-7.93,13.7-5.2,32.24-13.39,42.59-23.66ZM322.93,277.57c71.31-1.54,141-14.08,210.38-29.2,74.94-16.33,197.13-54.77,269.46-23.78l15.25,8.15c4.33-30.79-12.05-56.67-9.99-88.2,1.31-20.09,16.07-58.14,12.77-74.45-2.65-13.09-22.78-23.05-34.43-26.34-66.26-18.71-175.14,24.55-242.28,41.06-148.44,36.51-288.51,33.12-437.52,1.18-31.48-6.75-64.45-14.44-92.44-30.57-1.92,2.6,6.26,56.12,6.96,64.26,2.94,34.32-6.02,50.37-8.84,80.81-1.22,13.17,2.41,17.79,12.52,25.1,22.48,16.24,62.83,27.11,89.97,33.06,21.19,4.64,42.83,8.14,64.38,10.83,19.88,2.48,40.16,4.43,60.14,5.11,2.89,2.03,7.79.72,11.49.96,1.29.08,2.61,1.03,2.95,1.03h15.94c4.49,0,11.14.88,16.44,1,12.2.26,24.66.26,36.86,0ZM465.39,336.35c48.32-35.35,109.07-52.26,168.89-51.85,48.46.33,129.25,4.2,168.82-29.33,6.59-5.58,10.53-8.82,1.73-14.7-38.72-25.89-134.76-10.48-179.25-1.44-50.44,10.25-93.75,21.84-132.32,57.96-11.19,10.48-22.93,24.87-27.87,39.36ZM485.31,337.34c-6.17,4.14-8.47,5.8-13.95,10.96-4.29,4.04-8.45,7.58-11.95,12.46l10.44-3.53c.37-.21.57-.53.51-.96,32.73-10.11,61.3-15.98,94.32-3.17,17.93,6.96,33.44,18.99,51.12,26.07-7.39-17.65-13.59-37.9-6.97-56.77.98-.13,5.78-10.41,7.56-11.87l11.37-13.03c-31.99-.16-64.29,6.24-94.4,16.66-17.91,6.2-32.4,12.68-48.04,23.18Z" style="fill:#090c0c;"/><path d="M114.73,258.65c-27.14-5.95-67.49-16.82-89.97-33.06-10.11-7.3-13.74-11.93-12.52-25.1,2.82-30.44,11.78-46.49,8.84-80.81-.7-8.14-8.88-61.66-6.96-64.26,28,16.14,60.96,23.83,92.44,30.57,149.01,31.94,289.08,35.33,437.52-1.18,67.13-16.51,176.02-59.78,242.28-41.06,11.65,3.29,31.77,13.25,34.43,26.34,3.31,16.31-11.46,54.36-12.77,74.45-2.05,31.53,14.33,57.4,9.99,88.2l-15.25-8.15c-72.32-30.99-194.51,7.45-269.46,23.78-69.39,15.12-139.08,27.65-210.38,29.2-1.04-1.65-3.78-.99-5.46-1.01-8.63-.11-17.3-.09-25.93,0-1.68.02-4.43-.64-5.46,1.01-5.3-.11-11.94-1-16.44-1h-15.94c-.35,0-1.66-.95-2.95-1.03-3.7-.24-8.6,1.07-11.49-.96l-124.52-15.94ZM686.54,80.33l-.67-.82c-1.68-1.09-8.29.8-8.29,2.31v16.94c0,5.58,12.55-.07,15.94.5v80.19c0,2.91,17.61.41,18.93-1.49.09-.13.96-2.81,1-2.99l.99-79.7c1.84-.38,9.27.54,9.97,0,.23-.18-.24-1.7,0-1.99.37-.48,3.69-.23,4.03-1.66.55-2.29.53-15.4-1.67-16.13s-11.49.66-14.68.98c-8.47.85-17.18,2.23-25.53,3.86ZM789.14,177.96c.52-1.31.93-1.42,1.07-3.37,2.15-30.87-3.01-63.54-1.01-94.64l-17.99-3.6v39.85l-15.94-1v-39.85h-18.93l.99,99.62c5.67.03,12.75,1.07,17.93-1,.51-.2,1.79.6,2.04-.62l-.04-37.23,11.95,1v38.35c0,3.35,16.32,4.76,19.3,4.52,1.22-.24.42-1.53.62-2.03ZM671.59,83.32c-.19-.19.61-2.5-1.38-2.02-11.14,3.79-23.6,4.77-34.7,8.28-1.95.62-5.32,1.02-6.1,2.93l.34,99.39c4.34-.35,43.83-7.22,43.83-9.46v-17.43l-25.9,3.98v-21.92l18.47-4.94c1.03-1.56.49-13.89.46-16.97,0-.08,1.68-.35.03-1.52-4.03-1.82-13.08,3.11-17.97,2.52v-17.93c4.98-2.16,18.89-2.66,22.62-5.28s1.84-11.09,1.66-14.98c-.06-1.18.95-2.71.7-3.99-.22-1.1-1.95-.54-2.06-.66ZM589.91,104.24c-.85-1.84-3.25-.43-4.58-.11-3.72.88-8.38,1.5-11.36,3.6v43.33l-15.96-37.32c-2.75-3.16-19.36,1.33-20.41,3.44l.66,97.99c.75,3.28,18.3-1.14,18.89-1.95,3.38-4.69-.61-37.99.9-45.21l16.24,36.54c2.66,3.62,16.08.08,18.62-2.67.63-.68.72-1.19,1-1.99.4-1.19.89-1.33,1.07-3.37,1.65-19.06.06-44.39-.44-63.71-.25-9.66-1.12-19.35-.62-29.05-.33-1.46-.95.49-1,.49-.97.01-2.08-.13-2.99,0ZM79.6,114.44c-20.06,3.22-22.89,29.69-23.69,46.04-1.04,21.2.5,51.41,27.54,54.22,22.56,2.34,29.17-19.16,31.27-37.25,2.86-24.7,1.18-68.83-35.12-63.01ZM504.99,124.42c-30.2,3.67-30.33,49.38-28.64,71.95,1.27,16.92,6.94,30.29,26.38,28.39,28.39-2.78,30.34-39.23,29.39-61.24-.75-17.31-3.89-41.93-27.13-39.1ZM175.49,139.1c1.52-.58-2.48-4.78-2.75-5-9.9-7.8-23.63-10.1-34.67-3.13-1.55.98-1.97,1.16-2.43,3.15-17.9,16.34-22.55,88.91,12.54,93.56,31.21,4.14,31.67-29.97,31.34-52.15l-25.01-3.14c-1.28,3.28-3.83,17.17-.27,18.35,4.31,1.43,8.79-1.45,8.18,4.49-2.08,20.15-19.88,18.11-21.78-.85-.95-9.5-.51-34.41,4.52-42.28,5.37-8.4,15.14-6.48,17.96,2.87.56,1.87-.03,5.61,1.36,6.61.66.47,15.21,1.6,16.07.99,4.04-2.84-2.5-19.78-5.05-23.47ZM437.49,139.1c-2.13,10.67-7.28,21.3-9.97,31.87-1.51-.24-2.19-3.38-2.73-4.72-1.43-3.54-7.28-23.33-8.35-24.02-1.71-1.09-11.57.84-14.8.86-.21,0-1.17-2.01-2.52-.03-.85,1.39-.47,2.8-.25,4.27,2.15,14.5,15.07,35.02,17.48,49.3,1.11,6.54-1.18,43.35,1.37,44.95,16.04-1.39,19.82,1.14,19.83-16.34,0-10.66-.55-21.65.22-32.57l17.7-54.97c-.23-2.68-15.32-1.44-18.02-.09-1.46.99.08,1.4.06,1.5ZM262.16,143.09l-50.81-3.98v17.43c0,2.04,13.31,1.73,15.93,2.5-1.42,25.88-3.39,52.08-4.54,77.76.63.89,16.02,2.56,17.57,1.49l.79-1.19,4.12-77.07h15.94c-.32-.98,1-2.16,1-2.49v-14.44ZM266.64,240.71c3.57,1.1,12.18-.81,16.44,0l4.98-95.64c-3.41.43-15.62-2.83-17.5-.06-.3.44-1.3,8.93-1.42,10.54-1.68,22.81-3.3,47.91-4.04,70.68-.09,2.75-.74,13.78,1.54,14.49ZM395.65,144.08l-46.24,1.88c-.49,5.99-2.58,12.2-.58,18.04h13.95l-1,78.7,16.37-.94,2.56-78.76c2.26.42,14.95-.48,14.95-2.49v-16.44ZM341.86,164.01c.09-1.23,1.72-3.51,1.91-5.57.37-4.1-.08-8.27.09-12.37-15.06.79-30.32-2.32-45.38-1.04-7.63.65-3.38,4.31-3.39,9.46,0,3.01-2.1,5.9-.05,9.51h13.95l-2,78.7c3.93-.71,15.55,1.39,17.94-1l3.98-75.71,13.96-1.01c.13-.69-1.01-.91-1.01-.98Z" style="fill:#f9edd6;"/><path d="M465.39,336.35c4.94-14.5,16.68-28.89,27.87-39.36,38.56-36.11,81.88-47.7,132.32-57.96,44.49-9.04,140.53-24.45,179.25,1.44,8.8,5.88,4.86,9.12-1.73,14.7-39.57,33.53-120.36,29.66-168.82,29.33-59.82-.41-120.57,16.5-168.89,51.85Z" style="fill:#f9edd6;"/><path d="M149.59,33.51l-.64,1.12c10.37,1.85,22.04,6.76,32.51,3.86.33.01.66,0,1,0-.55,3.03,1.52,1.91,3.44,1.99,13.49.59,27.93-2.45,40.88-5.99l-.49,4c-.32.35-.68.65-1,1l-1.99,1.99c-.34.33-.66.67-1,1-2.84-.06-3.54,2.55-4.98,3.98-10.35,10.27-28.89,18.46-42.59,23.66-13.52,5.14-25.77,10.24-40.3,7.93-24-3.83-95.44-19.67-112.69-33.75-7.3-5.96-8.23-8.24-2.18-15.78,28.4-35.38,95.67-3.73,130.01,4.99Z" style="fill:#f9edd6;"/><path d="M485.31,337.34c15.64-10.51,30.14-16.98,48.04-23.18,30.11-10.42,62.41-16.82,94.4-16.66l-11.37,13.03c-1.77,1.45-6.57,11.73-7.56,11.87-.08.01-.55-.88-.97-1.01-2.67,7.69-3.64,14.72-3.02,22.92-8.39-3.63-17.91.66-26.18-1.2-5.15-1.16-9.15-10.57-14.15-10.84-1.33-.07-10.35.99-11.72,1.33-10.58,2.62-.07,13.17-.74,13.69-11.21-2.57-22.86-3.83-34.41-3.02-5.96.42-17.45,4.22-21.95,3.94-3.33-.2-7.31-9.12-12.38-7.9l1.99-2.98Z" style="fill:#f9edd6;"/><path d="M608.83,322.4c-6.62,18.87-.42,39.13,6.97,56.77-17.68-7.09-33.19-19.12-51.12-26.07-33.02-12.81-61.59-6.94-94.32,3.17-.02-.14-.93-.46-1.01-.98,6.19.77,6.4-3.97,2.01-6.99,5.48-5.16,7.78-6.82,13.95-10.96l-1.99,2.98c5.07-1.23,9.04,7.69,12.38,7.9,4.5.28,16-3.52,21.95-3.94,11.55-.82,23.2.45,34.41,3.02.67-.52-9.84-11.07.74-13.69,1.37-.34,10.39-1.41,11.72-1.33,5,.28,9,9.68,14.15,10.84,8.27,1.86,17.8-2.43,26.18,1.2-.62-8.2.35-15.23,3.02-22.92.43.13.89,1.02.97,1.01Z" style="fill:#f9edd6;"/><path d="M114.73,258.65l124.52,15.94c-19.99-.68-40.26-2.63-60.14-5.11-21.55-2.69-43.19-6.19-64.38-10.83Z" style="fill:#fefefe;"/><path d="M182.47,38.49c17.13.36,32.11-.99,48.3-6.99,1.25,2.68-3.08,5.47-4.47,6.99l.49-4c-12.95,3.54-27.39,6.58-40.88,5.99-1.92-.08-3.99,1.04-3.44-1.99Z" style="fill:#fefefe;"/><path d="M471.36,348.3c4.4,3.03,4.19,7.76-2.01,6.99.08.52.99.83,1.01.98.06.43-.15.75-.51.96l-10.44,3.53c3.5-4.88,7.66-8.42,11.95-12.46Z" style="fill:#f9edd6;"/><path d="M149.59,33.51c4.47,1.13,10.37,2.33,14.94,2.99.48,1.3,1.9.95,2.99,1,1.97.09,4.03-.18,5.98,0l1,1c2.3.16,4.66-.07,6.97,0-10.48,2.9-22.15-2.01-32.51-3.86l.64-1.12Z" style="fill:#fefefe;"/><path d="M322.93,277.57c-12.2.26-24.66.26-36.86,0,1.03-1.65,3.78-1,5.46-1.01,8.63-.09,17.3-.11,25.93,0,1.69.02,4.43-.64,5.46,1.01Z" style="fill:#fefefe;"/><path d="M222.31,42.47c-1.62,1.58-3.07,4.17-4.98,3.98,1.45-1.43,2.15-4.04,4.98-3.98Z" style="fill:#fefefe;"/><path d="M167.52,37.49c-1.09-.05-2.51.31-2.99-1,1.04.15,2.5-.38,2.99,1Z" style="fill:#f9edd6;"/><path d="M174.5,38.49l-1-1c.75.07.93.99,1,1Z" style="fill:#f9edd6;"/><path d="M223.31,41.48l1.99-1.99c-.69.74-1.28,1.3-1.99,1.99Z" style="fill:#fefefe;"/><path d="M589.91,104.24c.91-.13,2.02.01,2.99,0l1,95.63c-.27.81-.37,1.31-1,1.99l-15.98,3.56-20.87-46.39,1.03,52.14-17.97,4.64v-98.62c4.16-.59,14.45-4.89,17.96-2.51l17.9,42.36v-49.81c5.14-.26,9.88-2.29,14.94-2.99Z" style="fill:#090c0c;"/><path d="M755.27,173.97c-5.19,2.07-12.26,1.03-17.93,1l-.99-99.62h18.93v39.85l15.94,1v-39.85l17.99,3.6c-2.01,31.1,3.16,63.77,1.01,94.64-.14,1.95-.54,2.06-1.07,3.37-5.33,1.15-13.34-.32-17.93-2.49v-39.35l-14.94-1-1,1v37.85Z" style="fill:#090c0c;"/><path d="M79.6,114.44c36.3-5.82,37.98,38.31,35.12,63.01-2.1,18.09-8.71,39.6-31.27,37.25-27.04-2.81-28.58-33.03-27.54-54.22.8-16.35,3.64-42.82,23.69-46.04ZM80.86,136.12c-5.2,4.54-6.59,16.52-7.02,23.36-.52,8.34-1.6,31.32,7.02,35.41,17.67,8.38,17.06-31.24,16.95-40.36-.02-1.68.64-4.43-1.01-5.46,0-.33.02-.67,0-1-.23-3.81-.5-11.62-4.98-12.95-.27-.08-.65.05-1,0-3.51-2.14-6.94-1.64-9.96,1Z" style="fill:#090c0c;"/><path d="M135.65,134.12c10.78-9.84,31.67-6.84,39.85,4.98,2.55,3.69,9.09,20.64,5.05,23.47-.87.61-15.42-.52-16.07-.99-1.39-1-.79-4.74-1.36-6.61-2.82-9.35-12.59-11.28-17.96-2.87-5.03,7.87-5.47,32.78-4.52,42.28,1.9,18.96,19.7,21,21.78.85.61-5.94-3.87-3.06-8.18-4.49-3.56-1.18-1.02-15.07.27-18.35l25.01,3.14c.33,22.18-.12,56.28-31.34,52.15-35.09-4.65-30.43-77.22-12.54-93.56Z" style="fill:#090c0c;"/><path d="M504.99,124.42c23.23-2.83,26.38,21.79,27.13,39.1.95,22.02-1,58.46-29.39,61.24-19.44,1.9-25.1-11.48-26.38-28.39-1.7-22.57-1.56-68.28,28.64-71.95ZM503.95,143.29c-2.82.64-5.97,4.19-7.25,6.71-4.33,8.52-4.91,39.1-2.15,48.09,3.16,10.27,12.11,10.54,16.85,1.49s5.02-40.97,1.53-50.75c-1.59-4.45-4.09-6.65-8.98-5.54Z" style="fill:#090c0c;"/><path d="M671.59,83.32l-.14,17.79-23.77,5.12v21.92l18.93-2.99c.03,3.08.57,15.41-.46,16.97l-18.47,4.94v21.92l25.9-3.98v17.43c0,2.24-39.49,9.12-43.83,9.46l-.04-97.95c.6-2.49,36.6-9.99,41.88-10.64Z" style="fill:#090c0c;"/><path d="M437.49,139.1c1.35-1.06,15.9-2.42,15.95-1.48-.85,4.25-1.99,8.52-3.29,12.65-3.84,12.21-13.03,32.53-14.57,44.2-1.72,13.04,1.06,29.24-.02,42.64-.39,1.45-15.48,2.9-17.99,2.61v-45.33c0-2.24-12.82-33.58-14.67-39.13-.88-2.63-4.59-10.85-1.27-12.18,3.24-.02,13.09-1.95,14.8-.86,1.07.68,6.92,20.48,8.35,24.02.54,1.34,1.22,4.49,2.73,4.72,2.69-10.57,7.85-21.2,9.97-31.87Z" style="fill:#090c0c;"/><path d="M686.54,80.33c8.35-1.63,17.05-3.02,25.53-3.86,3.19-.32,12.42-1.73,14.68-.98s2.22,13.84,1.67,16.13c-.34,1.43-3.66,1.18-4.03,1.66-3.06,1.61-8.43.13-10.96,1.99-1.06.78-.77.91-1,1.99-.17.84.07,2.03,0,2.99s.04,2,0,2.99c-.05,1.32.03,2.66,0,3.98-.01.66,0,1.33,0,1.99-.02,1.33,0,2.66,0,3.98,0,2.32-.02,4.65,0,6.97,0,1-.03,1.99,0,2.99.04,1.31-.5,3.29,1,3.98.06,2.32-.01,4.65,0,6.97-1.6.94-1.63,4.97,0,5.98,0,1,0,1.99,0,2.99-1.21.99-1.2,1.99,0,2.99,0,1.66.01,3.32,0,4.98v1c-.07,6.27.29,12.67,0,18.93v1c-.07.96.17,2.15,0,2.99-.04.18-.91,2.86-1,2.99l-17.93,1.99v-82.68c-5.23,1.26-10.49,2.51-15.94,2v-17.93c2.7.06,5.37-.5,7.97-1.01Z" style="fill:#090c0c;"/><path d="M262.16,143.09v14.44c0,.33-1.32,1.51-1,2.49h-15.94l-4.12,77.07-.79,1.19c-1.55,1.08-16.93-.59-17.57-1.49,1.15-25.68,3.12-51.88,4.54-77.76-2.62-.77-15.93-.46-15.93-2.5v-17.43l50.81,3.98Z" style="fill:#090c0c;"/><path d="M324.92,241.71c-2.38,2.39-14,.3-17.94,1l2-78.7h-13.95c-2.05-3.61.04-6.5.05-9.51.01-5.15-4.24-8.82,3.39-9.46,15.06-1.28,30.32,1.83,45.38,1.04-.17,4.1.28,8.27-.09,12.37-.18,2.06-1.82,4.33-1.91,5.57-3.06.6-13.77-1.53-14.8,1.63l-2.13,76.07Z" style="fill:#090c0c;"/><path d="M395.65,144.08v16.44c0,2.01-12.68,2.9-14.95,2.49l-2.56,78.76-16.37.94,1-78.7h-13.95c-2-5.85.09-12.06.58-18.04l46.24-1.88Z" style="fill:#090c0c;"/><path d="M266.64,240.71c-2.27-.7-1.62-11.74-1.54-14.49.74-22.77,2.36-47.87,4.04-70.68.12-1.61,1.12-10.1,1.42-10.54,1.88-2.76,14.09.5,17.5.06l-4.98,95.64c-4.26-.81-12.86,1.1-16.44,0Z" style="fill:#090c0c;"/><path d="M756.27,135.12l14.94,1v39.35c4.59,2.18,12.6,3.64,17.93,2.49-.2.5.6,1.79-.62,2.03-2.98.24-19.3-1.17-19.3-4.52v-38.35l-11.95-1,.04,37.23c-.24,1.22-1.53.42-2.04.62v-37.85l1-1Z" style="fill:#fefefe;"/><path d="M589.91,104.24c-5.06.7-9.8,2.73-14.94,2.99v49.81l-17.9-42.36c-3.52-2.37-13.8,1.93-17.96,2.51v98.62l17.97-4.64-1.03-52.14,20.87,46.39,15.98-3.56c-2.53,2.75-15.95,6.29-18.62,2.67l-16.24-36.54c-1.52,7.22,2.48,40.53-.9,45.21-.59.81-18.14,5.23-18.89,1.95l-.66-97.99c1.05-2.11,17.66-6.6,20.41-3.44l15.96,37.32v-43.33c2.97-2.1,7.64-2.72,11.36-3.6,1.34-.31,3.74-1.73,4.58.11Z" style="fill:#fefefe;"/><path d="M593.89,199.87l-1-95.63c.06,0,.68-1.95,1-.49-.5,9.7.37,19.39.62,29.05.5,19.31,2.09,44.65.44,63.71-.18,2.04-.66,2.18-1.07,3.37Z" style="fill:#fefefe;"/><path d="M437.49,139.1c.02-.1-1.52-.51-.06-1.5,2.7-1.35,17.79-2.59,18.02.09l-17.7,54.97c-.77,10.92-.22,21.91-.22,32.57,0,17.49-3.79,14.95-19.83,16.34-2.54-1.6-.26-38.41-1.37-44.95-2.41-14.28-15.33-34.8-17.48-49.3-.22-1.47-.6-2.87.25-4.27,1.35-1.97,2.32.03,2.52.03-3.32,1.32.4,9.55,1.27,12.18,1.85,5.55,14.67,36.88,14.67,39.13v45.33c2.51.3,17.6-1.15,17.99-2.61,1.08-13.4-1.7-29.59.02-42.64,1.54-11.67,10.73-32,14.57-44.2,1.3-4.13,2.44-8.39,3.29-12.65-.05-.94-14.61.42-15.95,1.48Z" style="fill:#fefefe;"/><path d="M341.86,164.01c0,.07,1.14.29,1.01.98l-13.96,1.01-3.98,75.71,2.13-76.07c1.04-3.16,11.74-1.03,14.8-1.63Z" style="fill:#fefefe;"/><path d="M686.54,80.33c-2.61.51-5.27,1.07-7.96,1.01v17.93c5.44.52,10.7-.74,15.93-2v82.68l17.93-1.99c-1.32,1.91-18.93,4.4-18.93,1.49v-80.19c-3.39-.57-15.94,5.09-15.94-.5v-16.94c0-1.51,6.62-3.4,8.29-2.31l.67.82Z" style="fill:#fefefe;"/><path d="M629.75,191.9l-.34-99.39c.78-1.91,4.15-2.31,6.1-2.93,11.1-3.51,23.55-4.49,34.7-8.28,1.99-.48,1.19,1.83,1.38,2.02.11.12,1.84-.44,2.06.66.25,1.28-.76,2.81-.7,3.99.19,3.89,2.22,12.25-1.66,14.98s-17.63,3.12-22.62,5.28v17.93c4.89.59,13.93-4.34,17.97-2.52,1.65,1.17-.04,1.45-.03,1.52l-18.93,2.99v-21.92l23.77-5.12.14-17.79c-5.28.64-41.28,8.14-41.88,10.64l.04,97.95Z" style="fill:#fefefe;"/><path d="M724.39,93.28c-.23.29.24,1.81,0,1.99-.71.53-8.14-.38-9.97,0l-.99,79.7c.17-.84-.07-2.03,0-2.99.02-.33-.02-.66,0-1,.29-6.26-.07-12.65,0-18.93,0-.33,0-.66,0-1,.01-1.66,0-3.32,0-4.98,0-1,0-1.99,0-2.99s0-1.99,0-2.99c0-1.99.01-3.99,0-5.98-.01-2.32.06-4.66,0-6.97-.03-1.31.5-3.29-1-3.98-.03-.99,0-1.99,0-2.99,1.65-1.26,1.65-5.71,0-6.97,0-1.33-.02-2.66,0-3.98l.99-1.48-.99-.51c.03-1.33-.05-2.66,0-3.98,1.5-.14,1.5-2.85,0-2.99.07-.96-.17-2.15,0-2.99l1-1.99c2.52-1.86,7.9-.38,10.96-1.99Z" style="fill:#fefefe;"/><path d="M135.65,134.12c.45-1.99.87-2.17,2.43-3.15,11.04-6.97,24.78-4.67,34.67,3.13.27.21,4.27,4.42,2.75,5-8.17-11.83-29.07-14.82-39.85-4.98Z" style="fill:#fefefe;"/><path d="M755.27,136.12l1-1-1,1Z" style="fill:#f9edd6;"/><path d="M90.82,135.12c.34.05.72-.08,1,0,3.52,3.64,3.26,8.56,4.98,12.95.02.33,0,.66,0,1,.17,9.28-1.07,32.82-4.48,40.84-.83,1.95-2.33,3.97-4.46,4.58-2.93.85-5.05-1.49-7,.4-8.63-4.09-7.54-27.07-7.02-35.41.43-6.84,1.82-18.83,7.02-23.36l.49.97c2.5-2.18,6.28-2.4,9.47-1.97Z" style="fill:#f9edd6;"/><path d="M80.86,194.89c1.95-1.89,4.07.45,7-.4,2.13-.61,3.63-2.63,4.46-4.58,3.42-8.02,4.65-31.57,4.48-40.84,1.65,1.04.99,3.78,1.01,5.46.11,9.12.72,48.74-16.95,40.36Z" style="fill:#fefefe;"/><path d="M90.82,135.12c-3.2-.43-6.97-.21-9.47,1.97l-.49-.97c3.02-2.63,6.45-3.13,9.96-1Z" style="fill:#fefefe;"/><path d="M96.8,148.07c-1.72-4.39-1.46-9.31-4.98-12.95,4.48,1.33,4.75,9.14,4.98,12.95Z" style="fill:#fefefe;"/><path d="M503.95,143.29c4.9-1.11,7.39,1.1,8.98,5.54,3.5,9.78,3.26,41.61-1.53,50.75s-13.7,8.79-16.85-1.49c-2.76-8.99-2.19-39.57,2.15-48.09,1.29-2.53,4.43-6.08,7.25-6.71Z" style="fill:#f9edd6;"/><path d="M712.44,120.18c-.02-2.32,0-4.65,0-6.97,1.65,1.26,1.65,5.71,0,6.97Z" style="fill:#f9edd6;"/><path d="M713.43,140.1c-1.63-1-1.6-5.03,0-5.98.01,1.99,0,3.99,0,5.98Z" style="fill:#f9edd6;"/><path d="M713.43,127.15c-1.5-.69-.96-2.67-1-3.98,1.5.69.96,2.67,1,3.98Z" style="fill:#f9edd6;"/><path d="M712.44,103.24c.04-.99-.07-2,0-2.99,1.5.14,1.5,2.85,0,2.99Z" style="fill:#f9edd6;"/><path d="M713.43,146.08c-1.2-1-1.21-2,0-2.99,0,1,0,1.99,0,2.99Z" style="fill:#f9edd6;"/><path d="M712.44,109.22c0-.66-.01-1.33,0-1.99l.99.51-.99,1.48Z" style="fill:#f9edd6;"/><path d="M712.44,97.26c.22-1.08-.06-1.21,1-1.99l-1,1.99Z" style="fill:#f9edd6;"/><path d="M713.43,171.98v-1c-.02.33.02.67,0,1Z" style="fill:#f9edd6;"/><path d="M713.43,152.05v-1c0,.33,0,.66,0,1Z" style="fill:#f9edd6;"/></svg>